<svg width="228" height="101" viewBox="0 0 228 101" fill="none" xmlns="http://www.w3.org/2000/svg">
<path d="M85.4147 85.5366L87.8404 79.4871C88.0416 78.9855 87.6726 78.4391 87.1328 78.4391H81.1172C80.2115 78.4391 78.8876 79.4991 78.471 80.3599C78.4534 80.3963 78.4374 80.4324 78.4231 80.468L76.2675 85.6497C76.0108 86.2906 76.482 86.9884 77.1717 86.9884H83.2702C84.214 86.9884 85.0634 86.4136 85.4147 85.5366ZM72.3912 62.5862H81.2795C83.2186 62.5862 84.9468 61.3613 85.5914 59.5299L92.1634 40.859C92.812 39.0158 94.5516 37.7827 96.5037 37.7827H119.653C121.111 37.7827 122.131 39.2264 121.647 40.6036L115.53 57.9825C114.739 60.2302 116.404 62.5862 118.784 62.5862H136.538C141.074 62.5862 145.117 59.7205 146.625 55.4366L159.659 18.4056C161.854 12.1704 167.738 8 174.341 8H226.135C227.42 8 228.32 9.27262 227.893 10.4867L211.685 56.5327C209.806 61.8701 204.769 65.4404 199.117 65.4404H154.529C151.013 65.4404 147.879 67.6616 146.71 70.9828L137.792 96.3189C136.805 99.1238 134.158 101 131.188 101H100.637C98.0405 101 96.2239 98.4302 97.087 95.9785L106.493 69.256C107.149 67.3928 105.768 65.4404 103.795 65.4404H87.8404C86.027 65.4404 84.4112 66.5858 83.8084 68.2979L80.7508 76.9846C80.7247 77.0589 80.6942 77.1317 80.6596 77.2028C80.1343 78.2851 78.676 78.9977 77.4752 79.0101C77.4646 79.0102 77.454 79.0103 77.4434 79.0103H65.6543C64.514 79.0103 63.7165 77.8815 64.0953 76.8051L68.0062 65.6942C68.6619 63.8317 70.4191 62.5862 72.3912 62.5862Z" fill="white"/>
<path d="M81.1172 78.4391C80.2115 78.4391 78.8876 79.4991 78.471 80.3599C78.7381 79.6711 78.2711 79.0146 77.4752 79.0101C78.676 78.9977 80.1343 78.2851 80.6596 77.2028C80.4718 77.6839 80.281 78.4391 81.1172 78.4391Z" fill="white"/>
<path d="M3.19201 8.11801C3.41601 6.74601 3.76601 5.58401 4.24201 4.63201C4.74601 3.65201 5.41801 2.86801 6.25801 2.28001C7.09801 1.69201 8.10601 1.27201 9.28201 1.02001C10.486 0.740006 11.9 0.600006 13.524 0.600006H47.754C48.93 0.600006 49.434 1.18801 49.266 2.36401L48.72 5.72401C48.552 6.90001 47.866 7.48801 46.662 7.48801H13.524C12.712 7.48801 12.082 7.64201 11.634 7.95001C11.214 8.23001 10.934 8.73401 10.794 9.46201L10.71 9.88201C10.682 9.96601 10.668 10.064 10.668 10.176C10.668 10.288 10.668 10.372 10.668 10.428C10.668 11.52 11.382 12.066 12.81 12.066H39.606C40.866 12.066 41.986 12.178 42.966 12.402C43.974 12.598 44.828 12.934 45.528 13.41C46.228 13.858 46.76 14.46 47.124 15.216C47.516 15.944 47.712 16.84 47.712 17.904C47.712 18.436 47.67 18.996 47.586 19.584L47.124 22.482C46.9 23.882 46.536 25.058 46.032 26.01C45.556 26.962 44.898 27.732 44.058 28.32C43.218 28.908 42.196 29.342 40.992 29.622C39.816 29.874 38.416 30 36.792 30H2.14201C0.966011 30 0.462011 29.412 0.630011 28.236L1.17601 24.876C1.34401 23.7 2.01601 23.112 3.19201 23.112H36.75C37.562 23.112 38.206 22.944 38.682 22.608C39.158 22.244 39.452 21.684 39.564 20.928L39.606 20.634C39.634 20.522 39.648 20.368 39.648 20.172C39.648 19.08 38.934 18.534 37.506 18.534H10.71C8.21801 18.534 6.23001 18.1 4.74601 17.232C3.29001 16.364 2.56201 14.866 2.56201 12.738C2.56201 12.458 2.57601 12.178 2.60401 11.898C2.63201 11.618 2.67401 11.324 2.73001 11.016L3.19201 8.11801Z" fill="white"/>
<path d="M52.7507 9.37801C52.9747 8.00601 53.3247 6.77401 53.8007 5.68201C54.2767 4.59001 54.9067 3.66601 55.6907 2.91001C56.5027 2.15401 57.4967 1.58001 58.6727 1.18801C59.8487 0.796006 61.2487 0.600006 62.8727 0.600006H96.8927C98.0687 0.600006 98.5727 1.18801 98.4047 2.36401L97.8587 5.72401C97.6907 6.90001 97.0047 7.48801 95.8007 7.48801H63.9647C61.8927 7.48801 60.7027 8.52401 60.3947 10.596L58.8827 20.004C58.8547 20.144 58.8407 20.27 58.8407 20.382C58.8407 20.494 58.8407 20.606 58.8407 20.718C58.8407 22.314 59.7227 23.112 61.4867 23.112H93.3227C94.4987 23.112 95.0027 23.7 94.8347 24.876L94.2887 28.236C94.1207 29.412 93.4487 30 92.2727 30H58.2527C55.7887 30 53.9127 29.412 52.6247 28.236C51.3647 27.06 50.7347 25.394 50.7347 23.238C50.7347 22.538 50.7907 21.866 50.9027 21.222L52.7507 9.37801Z" fill="white"/>
<path d="M121.691 18.954L107.579 28.95C106.991 29.37 106.501 29.65 106.109 29.79C105.717 29.93 105.143 30 104.387 30H97.2471C96.9951 30 96.7991 29.93 96.6591 29.79C96.4911 29.65 96.3931 29.482 96.3651 29.286C96.3091 29.062 96.3231 28.838 96.4071 28.614C96.4911 28.362 96.6591 28.152 96.9111 27.984L115.349 15.216L101.195 2.61601C100.999 2.44801 100.873 2.25201 100.817 2.02801C100.789 1.80401 100.817 1.59401 100.901 1.39801C100.985 1.17401 101.111 0.992008 101.279 0.852008C101.447 0.684007 101.657 0.600006 101.909 0.600006H108.209C108.965 0.600006 109.553 0.670006 109.973 0.810006C110.421 0.950006 110.869 1.23001 111.317 1.65001L122.027 11.478L135.845 1.65001C136.153 1.45401 136.419 1.28601 136.643 1.14601C136.895 1.00601 137.133 0.894006 137.357 0.810006C137.581 0.726007 137.819 0.670007 138.071 0.642006C138.351 0.614006 138.687 0.600006 139.079 0.600006H146.219C146.471 0.600006 146.667 0.684007 146.807 0.852008C146.975 0.992008 147.073 1.17401 147.101 1.39801C147.157 1.59401 147.143 1.80401 147.059 2.02801C146.975 2.25201 146.807 2.44801 146.555 2.61601L128.411 15.216L142.775 27.984C142.971 28.152 143.083 28.362 143.111 28.614C143.167 28.838 143.153 29.062 143.069 29.286C142.985 29.482 142.859 29.65 142.691 29.79C142.523 29.93 142.313 30 142.061 30H135.761C135.005 30 134.403 29.93 133.955 29.79C133.535 29.65 133.087 29.37 132.611 28.95L121.691 18.954Z" fill="white"/>
<path d="M156.58 100C154.82 100 153.48 99.58 152.56 98.74C151.66 97.9 151.21 96.71 151.21 95.17C151.21 94.67 151.25 94.19 151.33 93.73L151.84 90.46C151.96 89.62 152.45 89.2 153.31 89.2H156.37C157.19 89.2 157.54 89.62 157.42 90.46L157.03 92.86C157.01 92.96 157 93.05 157 93.13C157 93.21 157 93.29 157 93.37C157 94.51 157.63 95.08 158.89 95.08H174.49C175.21 95.08 175.79 94.89 176.23 94.51C176.69 94.13 176.97 93.58 177.07 92.86L179.08 80.26C179.2 79.42 179.68 79 180.52 79H183.58C184.42 79 184.78 79.42 184.66 80.26L182.53 93.73C182.37 94.73 182.12 95.62 181.78 96.4C181.44 97.16 180.98 97.81 180.4 98.35C179.84 98.89 179.14 99.3 178.3 99.58C177.46 99.86 176.46 100 175.3 100H156.58Z" fill="white"/>
<path d="M186.766 84.37C186.926 83.39 187.176 82.56 187.516 81.88C187.876 81.18 188.356 80.62 188.956 80.2C189.556 79.78 190.276 79.48 191.116 79.3C191.976 79.1 192.986 79 194.146 79H218.596C219.436 79 219.796 79.42 219.676 80.26L219.286 82.66C219.166 83.5 218.676 83.92 217.816 83.92H194.146C193.566 83.92 193.116 84.03 192.796 84.25C192.496 84.45 192.296 84.81 192.196 85.33L192.136 85.63C192.116 85.69 192.106 85.76 192.106 85.84C192.106 85.92 192.106 85.98 192.106 86.02C192.106 86.8 192.616 87.19 193.636 87.19H212.776C213.676 87.19 214.476 87.27 215.176 87.43C215.896 87.57 216.506 87.81 217.006 88.15C217.506 88.47 217.886 88.9 218.146 89.44C218.426 89.96 218.566 90.6 218.566 91.36C218.566 91.74 218.536 92.14 218.476 92.56L218.146 94.63C217.986 95.63 217.726 96.47 217.366 97.15C217.026 97.83 216.556 98.38 215.956 98.8C215.356 99.22 214.626 99.53 213.766 99.73C212.926 99.91 211.926 100 210.766 100H186.016C185.176 100 184.816 99.58 184.936 98.74L185.326 96.34C185.446 95.5 185.926 95.08 186.766 95.08H210.736C211.316 95.08 211.776 94.96 212.116 94.72C212.456 94.46 212.666 94.06 212.746 93.52L212.776 93.31C212.796 93.23 212.806 93.12 212.806 92.98C212.806 92.2 212.296 91.81 211.276 91.81H192.136C190.356 91.81 188.936 91.5 187.876 90.88C186.836 90.26 186.316 89.19 186.316 87.67C186.316 87.47 186.326 87.27 186.346 87.07C186.366 86.87 186.396 86.66 186.436 86.44L186.766 84.37Z" fill="white"/>
</svg>
